# xmcd
#
# Track frame offsets:
#	150
#	15200
#	30032
#	42394
#	62545
#	78190
#	92433
#	107477
#	120981
#	135330
#	145858
#	161298
#	175226
#	190239
#	210205
#
# Disc length: 2978 seconds
#
# Revision: 0
# Processed by: cddbd v1.5.2PL0 Copyright (c) Steve Scherf et al.
# Submitted via: EasyCDDAExtractor 16.1.0.1
#
DISCID=9e0ba00f
DTITLE=Blue and Lonesome - Some Old Day
DYEAR=2010
DGENRE=Bluegrass
TTITLE0=Poison Love
TTITLE1=Some Old Day
TTITLE2=Love Gone Cold
TTITLE3=New Camptown Races
TTITLE4=There Is A Trap
TTITLE5=Old Home Town
TTITLE6=Summertime Is Past And Gone
TTITLE7=My Walkin Shoes
TTITLE8=Salt River
TTITLE9=Good-Bye Old Pal
TTITLE10=No Mother Or Dad
TTITLE11=All The Good Times Have Past And Gone
TTITLE12=High Country
TTITLE13=Rocky Road Blues
TTITLE14=Roll On Buddy
EXTD=
EXTT0=
EXTT1=
EXTT2=
EXTT3=
EXTT4=
EXTT5=
EXTT6=
EXTT7=
EXTT8=
EXTT9=
EXTT10=
EXTT11=
EXTT12=
EXTT13=
EXTT14=
PLAYORDER=
